<?xml version="1.0" encoding="UTF-8"?>
<!--
  MTSAi icon sprite — 20 common icons
  Usage: <svg class="mts-icon" width="16" height="16" aria-hidden="true">
           <use href="assets/design-system/icons/sprite.svg#arrow-right"/>
         </svg>
  All icons: 24×24 viewBox, 1.5px stroke, stroke="currentColor", fill="none"
-->
<svg xmlns="http://www.w3.org/2000/svg" style="display:none">

  <symbol id="arrow-right" viewBox="0 0 24 24" fill="none" stroke="currentColor" stroke-width="1.5" stroke-linecap="round" stroke-linejoin="round">
    <path d="M5 12h14M13 6l6 6-6 6"/>
  </symbol>

  <symbol id="arrow-left" viewBox="0 0 24 24" fill="none" stroke="currentColor" stroke-width="1.5" stroke-linecap="round" stroke-linejoin="round">
    <path d="M19 12H5M11 6l-6 6 6 6"/>
  </symbol>

  <symbol id="check" viewBox="0 0 24 24" fill="none" stroke="currentColor" stroke-width="1.5" stroke-linecap="round" stroke-linejoin="round">
    <path d="M20 6L9 17l-5-5"/>
  </symbol>

  <symbol id="close" viewBox="0 0 24 24" fill="none" stroke="currentColor" stroke-width="1.5" stroke-linecap="round" stroke-linejoin="round">
    <path d="M18 6L6 18M6 6l12 12"/>
  </symbol>

  <symbol id="menu" viewBox="0 0 24 24" fill="none" stroke="currentColor" stroke-width="1.5" stroke-linecap="round" stroke-linejoin="round">
    <path d="M3 6h18M3 12h18M3 18h18"/>
  </symbol>

  <symbol id="plus" viewBox="0 0 24 24" fill="none" stroke="currentColor" stroke-width="1.5" stroke-linecap="round" stroke-linejoin="round">
    <path d="M12 5v14M5 12h14"/>
  </symbol>

  <symbol id="minus" viewBox="0 0 24 24" fill="none" stroke="currentColor" stroke-width="1.5" stroke-linecap="round" stroke-linejoin="round">
    <path d="M5 12h14"/>
  </symbol>

  <symbol id="external-link" viewBox="0 0 24 24" fill="none" stroke="currentColor" stroke-width="1.5" stroke-linecap="round" stroke-linejoin="round">
    <path d="M18 13v6a2 2 0 01-2 2H5a2 2 0 01-2-2V8a2 2 0 012-2h6M15 3h6v6M10 14L21 3"/>
  </symbol>

  <symbol id="download" viewBox="0 0 24 24" fill="none" stroke="currentColor" stroke-width="1.5" stroke-linecap="round" stroke-linejoin="round">
    <path d="M21 15v4a2 2 0 01-2 2H5a2 2 0 01-2-2v-4M7 10l5 5 5-5M12 15V3"/>
  </symbol>

  <symbol id="info" viewBox="0 0 24 24" fill="none" stroke="currentColor" stroke-width="1.5" stroke-linecap="round" stroke-linejoin="round">
    <circle cx="12" cy="12" r="10"/>
    <path d="M12 16v-4M12 8h.01"/>
  </symbol>

  <symbol id="warning" viewBox="0 0 24 24" fill="none" stroke="currentColor" stroke-width="1.5" stroke-linecap="round" stroke-linejoin="round">
    <path d="M10.29 3.86L1.82 18a2 2 0 001.71 3h16.94a2 2 0 001.71-3L13.71 3.86a2 2 0 00-3.42 0zM12 9v4M12 17h.01"/>
  </symbol>

  <symbol id="error" viewBox="0 0 24 24" fill="none" stroke="currentColor" stroke-width="1.5" stroke-linecap="round" stroke-linejoin="round">
    <circle cx="12" cy="12" r="10"/>
    <path d="M15 9l-6 6M9 9l6 6"/>
  </symbol>

  <symbol id="success" viewBox="0 0 24 24" fill="none" stroke="currentColor" stroke-width="1.5" stroke-linecap="round" stroke-linejoin="round">
    <path d="M22 11.08V12a10 10 0 11-5.93-9.14"/>
    <path d="M22 4L12 14.01l-3-3"/>
  </symbol>

  <symbol id="search" viewBox="0 0 24 24" fill="none" stroke="currentColor" stroke-width="1.5" stroke-linecap="round" stroke-linejoin="round">
    <circle cx="11" cy="11" r="8"/>
    <path d="M21 21l-4.35-4.35"/>
  </symbol>

  <symbol id="filter" viewBox="0 0 24 24" fill="none" stroke="currentColor" stroke-width="1.5" stroke-linecap="round" stroke-linejoin="round">
    <path d="M22 3H2l8 9.46V19l4 2v-8.54L22 3z"/>
  </symbol>

  <symbol id="sort" viewBox="0 0 24 24" fill="none" stroke="currentColor" stroke-width="1.5" stroke-linecap="round" stroke-linejoin="round">
    <path d="M11 5h10M11 9h7M11 13h4M3 17l3 3 3-3M6 20V4"/>
  </symbol>

  <symbol id="edit" viewBox="0 0 24 24" fill="none" stroke="currentColor" stroke-width="1.5" stroke-linecap="round" stroke-linejoin="round">
    <path d="M11 4H4a2 2 0 00-2 2v14a2 2 0 002 2h14a2 2 0 002-2v-7"/>
    <path d="M18.5 2.5a2.121 2.121 0 013 3L12 15l-4 1 1-4 9.5-9.5z"/>
  </symbol>

  <symbol id="trash" viewBox="0 0 24 24" fill="none" stroke="currentColor" stroke-width="1.5" stroke-linecap="round" stroke-linejoin="round">
    <path d="M3 6h18M19 6v14a2 2 0 01-2 2H7a2 2 0 01-2-2V6m3 0V4a2 2 0 012-2h4a2 2 0 012 2v2"/>
    <path d="M10 11v6M14 11v6"/>
  </symbol>

  <symbol id="copy" viewBox="0 0 24 24" fill="none" stroke="currentColor" stroke-width="1.5" stroke-linecap="round" stroke-linejoin="round">
    <rect x="9" y="9" width="13" height="13" rx="2" ry="2"/>
    <path d="M5 15H4a2 2 0 01-2-2V4a2 2 0 012-2h9a2 2 0 012 2v1"/>
  </symbol>

  <symbol id="chevron-down" viewBox="0 0 24 24" fill="none" stroke="currentColor" stroke-width="1.5" stroke-linecap="round" stroke-linejoin="round">
    <path d="M6 9l6 6 6-6"/>
  </symbol>

  <symbol id="chevron-right" viewBox="0 0 24 24" fill="none" stroke="currentColor" stroke-width="1.5" stroke-linecap="round" stroke-linejoin="round">
    <path d="M9 18l6-6-6-6"/>
  </symbol>

</svg>
